<svg width="78" height="33" viewBox="0 0 78 33" fill="none" xmlns="http://www.w3.org/2000/svg">
<path d="M45.7671 21H38.1938V10.4531H41.1016V19.6597H45.7671V21ZM55.5669 16.752C55.5669 17.1914 55.5083 17.604 55.3911 17.9897C55.2739 18.3755 55.1104 18.7319 54.9004 19.0591C54.6953 19.3862 54.4463 19.6816 54.1533 19.9453C53.8604 20.2041 53.5381 20.4238 53.1865 20.6045C52.8398 20.7852 52.4663 20.9243 52.0659 21.022C51.6704 21.1196 51.2627 21.1685 50.8428 21.1685C50.4229 21.1685 50.0151 21.1196 49.6196 21.022C49.2241 20.9243 48.8506 20.7852 48.499 20.6045C48.1523 20.4238 47.8325 20.2041 47.5396 19.9453C47.2466 19.6816 46.9951 19.3862 46.7852 19.0591C46.5801 18.7319 46.4189 18.3755 46.3018 17.9897C46.1846 17.5991 46.126 17.1865 46.126 16.752C46.126 16.3174 46.1846 15.9072 46.3018 15.5215C46.4189 15.1309 46.5801 14.772 46.7852 14.4448C46.9951 14.1177 47.2466 13.8247 47.5396 13.5659C47.8325 13.3022 48.1523 13.0801 48.499 12.8994C48.8506 12.7188 49.2241 12.5796 49.6196 12.4819C50.0151 12.3843 50.4229 12.3354 50.8428 12.3354C51.2627 12.3354 51.6704 12.3843 52.0659 12.4819C52.4663 12.5796 52.8398 12.7188 53.1865 12.8994C53.5381 13.0801 53.8604 13.3022 54.1533 13.5659C54.4463 13.8247 54.6953 14.1177 54.9004 14.4448C55.1104 14.772 55.2739 15.1309 55.3911 15.5215C55.5083 15.9072 55.5669 16.3174 55.5669 16.752ZM53.0474 16.752C53.0474 16.5176 53.0327 16.271 53.0034 16.0122C52.979 15.7485 52.9351 15.4922 52.8716 15.2432C52.8081 14.9893 52.7202 14.7476 52.6079 14.5181C52.5005 14.2837 52.3662 14.0811 52.2051 13.9102C52.0439 13.7344 51.8511 13.5952 51.6265 13.4927C51.4019 13.3853 51.1406 13.3315 50.8428 13.3315C50.5596 13.3315 50.3081 13.3853 50.0884 13.4927C49.8687 13.6001 49.6758 13.7441 49.5098 13.9248C49.3486 14.1006 49.2119 14.3057 49.0996 14.54C48.9922 14.7744 48.9043 15.0186 48.8359 15.2725C48.7676 15.5215 48.7188 15.7754 48.6895 16.0342C48.6602 16.2881 48.6455 16.5273 48.6455 16.752C48.6455 16.9766 48.6602 17.2183 48.6895 17.4771C48.7188 17.731 48.7676 17.9849 48.8359 18.2388C48.9043 18.4927 48.9922 18.7368 49.0996 18.9712C49.2119 19.2007 49.3486 19.4058 49.5098 19.5864C49.6758 19.7622 49.8687 19.9038 50.0884 20.0112C50.3081 20.1187 50.5596 20.1724 50.8428 20.1724C51.1357 20.1724 51.3945 20.1211 51.6191 20.0186C51.8438 19.9111 52.0366 19.7695 52.1978 19.5938C52.3638 19.418 52.5005 19.2153 52.6079 18.9858C52.7153 18.7563 52.8008 18.5146 52.8643 18.2607C52.9326 18.0068 52.979 17.7505 53.0034 17.4917C53.0327 17.2329 53.0474 16.9863 53.0474 16.752ZM65.6523 19.9819C65.6523 20.6558 65.5522 21.2905 65.3521 21.8862C65.1519 22.4819 64.8613 23.002 64.4805 23.4463C64.0996 23.8955 63.6309 24.2495 63.0742 24.5083C62.5225 24.772 61.8926 24.9038 61.1846 24.9038C60.7939 24.9038 60.3984 24.8599 59.998 24.772C59.6025 24.6841 59.2266 24.5474 58.8701 24.3618C58.5186 24.1812 58.2012 23.9492 57.918 23.666C57.6396 23.3877 57.4199 23.0581 57.2588 22.6772L58.3281 22.2744C58.4209 22.5137 58.5405 22.7334 58.687 22.9336C58.8384 23.1338 59.0117 23.3047 59.207 23.4463C59.4023 23.5928 59.6172 23.7051 59.8516 23.7832C60.0859 23.8662 60.3325 23.9077 60.5913 23.9077C61.0796 23.9077 61.4873 23.8076 61.8145 23.6074C62.1465 23.4072 62.4126 23.146 62.6128 22.8237C62.813 22.5015 62.957 22.1353 63.0449 21.7251C63.1328 21.3198 63.1768 20.9072 63.1768 20.4873V19.9893C62.8838 20.3896 62.5298 20.6875 62.1147 20.8828C61.7046 21.0732 61.2529 21.1685 60.7598 21.1685C60.1152 21.1685 59.5391 21.0537 59.0312 20.8242C58.5234 20.5947 58.0938 20.2822 57.7422 19.8867C57.3906 19.4863 57.1221 19.0176 56.9365 18.4805C56.751 17.9434 56.6582 17.3672 56.6582 16.752C56.6582 16.1367 56.751 15.5605 56.9365 15.0234C57.1221 14.4863 57.3906 14.02 57.7422 13.6245C58.0938 13.2241 58.5234 12.9092 59.0312 12.6797C59.5391 12.4502 60.1152 12.3354 60.7598 12.3354C61.0869 12.3354 61.397 12.3843 61.6899 12.4819C61.9878 12.5796 62.2588 12.7188 62.5029 12.8994C62.752 13.0752 62.9692 13.29 63.1548 13.5439C63.3452 13.793 63.4941 14.0713 63.6016 14.3789L64.7002 12.5405H65.6523V19.9819ZM63.1621 16.752C63.1621 16.5322 63.1499 16.3003 63.1255 16.0562C63.106 15.812 63.0693 15.5703 63.0156 15.3311C62.9619 15.0918 62.8862 14.8647 62.7886 14.6499C62.6958 14.4302 62.5737 14.2373 62.4224 14.0713C62.2759 13.9004 62.0977 13.7661 61.8877 13.6685C61.6777 13.5708 61.4336 13.522 61.1553 13.522C60.877 13.522 60.6353 13.5732 60.4302 13.6758C60.2251 13.7734 60.0493 13.9077 59.9028 14.0786C59.7563 14.2446 59.6343 14.4375 59.5366 14.6572C59.4438 14.877 59.3706 15.1064 59.3169 15.3457C59.2632 15.585 59.2241 15.8267 59.1997 16.0708C59.1802 16.3101 59.1704 16.5371 59.1704 16.752C59.1704 16.9668 59.1802 17.1963 59.1997 17.4404C59.2241 17.6846 59.2632 17.9263 59.3169 18.1655C59.3706 18.4048 59.4438 18.6343 59.5366 18.854C59.6343 19.0737 59.7563 19.269 59.9028 19.4399C60.0493 19.606 60.2251 19.7402 60.4302 19.8428C60.6353 19.9404 60.877 19.9893 61.1553 19.9893C61.4092 19.9893 61.6338 19.938 61.8291 19.8354C62.0293 19.728 62.2026 19.5864 62.3491 19.4106C62.5005 19.2349 62.6274 19.0347 62.73 18.8101C62.8325 18.5854 62.9155 18.3535 62.979 18.1143C63.0425 17.875 63.0889 17.6382 63.1182 17.4038C63.1475 17.1646 63.1621 16.9473 63.1621 16.752ZM76.6606 16.752C76.6606 17.1914 76.6021 17.604 76.4849 17.9897C76.3677 18.3755 76.2041 18.7319 75.9941 19.0591C75.7891 19.3862 75.54 19.6816 75.2471 19.9453C74.9541 20.2041 74.6318 20.4238 74.2803 20.6045C73.9336 20.7852 73.5601 20.9243 73.1597 21.022C72.7642 21.1196 72.3564 21.1685 71.9365 21.1685C71.5166 21.1685 71.1089 21.1196 70.7134 21.022C70.3179 20.9243 69.9443 20.7852 69.5928 20.6045C69.2461 20.4238 68.9263 20.2041 68.6333 19.9453C68.3403 19.6816 68.0889 19.3862 67.8789 19.0591C67.6738 18.7319 67.5127 18.3755 67.3955 17.9897C67.2783 17.5991 67.2197 17.1865 67.2197 16.752C67.2197 16.3174 67.2783 15.9072 67.3955 15.5215C67.5127 15.1309 67.6738 14.772 67.8789 14.4448C68.0889 14.1177 68.3403 13.8247 68.6333 13.5659C68.9263 13.3022 69.2461 13.0801 69.5928 12.8994C69.9443 12.7188 70.3179 12.5796 70.7134 12.4819C71.1089 12.3843 71.5166 12.3354 71.9365 12.3354C72.3564 12.3354 72.7642 12.3843 73.1597 12.4819C73.5601 12.5796 73.9336 12.7188 74.2803 12.8994C74.6318 13.0801 74.9541 13.3022 75.2471 13.5659C75.54 13.8247 75.7891 14.1177 75.9941 14.4448C76.2041 14.772 76.3677 15.1309 76.4849 15.5215C76.6021 15.9072 76.6606 16.3174 76.6606 16.752ZM74.1411 16.752C74.1411 16.5176 74.1265 16.271 74.0972 16.0122C74.0728 15.7485 74.0288 15.4922 73.9653 15.2432C73.9019 14.9893 73.814 14.7476 73.7017 14.5181C73.5942 14.2837 73.46 14.0811 73.2988 13.9102C73.1377 13.7344 72.9448 13.5952 72.7202 13.4927C72.4956 13.3853 72.2344 13.3315 71.9365 13.3315C71.6533 13.3315 71.4019 13.3853 71.1821 13.4927C70.9624 13.6001 70.7695 13.7441 70.6035 13.9248C70.4424 14.1006 70.3057 14.3057 70.1934 14.54C70.0859 14.7744 69.998 15.0186 69.9297 15.2725C69.8613 15.5215 69.8125 15.7754 69.7832 16.0342C69.7539 16.2881 69.7393 16.5273 69.7393 16.752C69.7393 16.9766 69.7539 17.2183 69.7832 17.4771C69.8125 17.731 69.8613 17.9849 69.9297 18.2388C69.998 18.4927 70.0859 18.7368 70.1934 18.9712C70.3057 19.2007 70.4424 19.4058 70.6035 19.5864C70.7695 19.7622 70.9624 19.9038 71.1821 20.0112C71.4019 20.1187 71.6533 20.1724 71.9365 20.1724C72.2295 20.1724 72.4883 20.1211 72.7129 20.0186C72.9375 19.9111 73.1304 19.7695 73.2915 19.5938C73.4575 19.418 73.5942 19.2153 73.7017 18.9858C73.8091 18.7563 73.8945 18.5146 73.958 18.2607C74.0264 18.0068 74.0728 17.7505 74.0972 17.4917C74.1265 17.2329 74.1411 16.9863 74.1411 16.752Z" fill="#EC7160"/>
<circle cx="16" cy="16" r="16" fill="#EC7160"/>
<path d="M15.4805 8.21484C15.6055 8.75391 15.7305 9.34375 15.8555 9.98438C15.9805 10.625 16.1016 11.293 16.2188 11.9883C16.3438 12.6758 16.4648 13.3789 16.582 14.0977C16.707 14.8086 16.8281 15.5117 16.9453 16.207C17.0703 16.8945 17.1875 17.5625 17.2969 18.2109C17.4141 18.8516 17.5312 19.4453 17.6484 19.9922C18.4375 18.4375 19.1953 16.9648 19.9219 15.5742C20.6562 14.1836 21.3398 12.9375 21.9727 11.8359C22.6055 10.7266 23.1797 9.78516 23.6953 9.01172C24.2109 8.23047 24.6562 7.67188 25.0312 7.33594C25.1953 7.17969 25.3672 7.07031 25.5469 7.00781C25.7266 6.94531 25.9023 6.91406 26.0742 6.91406C26.3242 6.91406 26.5352 6.97656 26.707 7.10156C26.8867 7.22656 26.9766 7.38672 26.9766 7.58203C26.9766 7.69922 26.957 7.79687 26.918 7.875C26.8789 7.95313 26.8164 8.03906 26.7305 8.13281C26.4102 8.5 26.1094 8.83984 25.8281 9.15234C25.5469 9.45703 25.2695 9.78125 24.9961 10.125C24.7305 10.4609 24.4609 10.8398 24.1875 11.2617C23.9219 11.6836 23.6445 12.1875 23.3555 12.7734C23.0039 13.4219 22.6523 14.0898 22.3008 14.7773C21.9492 15.457 21.6094 16.1367 21.2812 16.8164C20.9531 17.4883 20.6367 18.1406 20.332 18.7734C20.0352 19.4062 19.7617 19.9922 19.5117 20.5312C19.2617 21.0625 19.0352 21.5391 18.832 21.9609C18.6289 22.375 18.4609 22.6992 18.3281 22.9336C18.1016 23.418 17.8398 23.7773 17.543 24.0117C17.2539 24.2461 16.9883 24.3672 16.7461 24.375H16.6641C16.5078 24.3672 16.3555 24.3359 16.207 24.2812C16.0586 24.2266 15.9219 24.1445 15.7969 24.0352C15.6719 23.9258 15.5625 23.7891 15.4688 23.625C15.3828 23.4531 15.3242 23.2539 15.293 23.0273C15.168 22.5352 15.0547 22.0547 14.9531 21.5859C14.8594 21.1094 14.7695 20.625 14.6836 20.1328C14.5977 19.6328 14.5078 19.1133 14.4141 18.5742C14.3281 18.0273 14.2344 17.4336 14.1328 16.793C14.0312 16.1523 13.9141 15.4531 13.7812 14.6953C13.6562 13.9375 13.5078 13.0977 13.3359 12.1758C13.1016 12.957 12.8164 13.8164 12.4805 14.7539C12.1445 15.6836 11.7734 16.625 11.3672 17.5781C10.9609 18.5234 10.5234 19.4414 10.0547 20.332C9.58594 21.2148 9.09375 22 8.57812 22.6875C8.0625 23.375 7.53125 23.9258 6.98438 24.3398C6.44531 24.7539 5.90234 24.9609 5.35547 24.9609C5.26172 24.9609 5.15234 24.9375 5.02734 24.8906C4.90234 24.8516 4.78125 24.7891 4.66406 24.7031C4.55469 24.625 4.46094 24.5273 4.38281 24.4102C4.30469 24.293 4.26562 24.1641 4.26562 24.0234C4.26562 23.9141 4.28516 23.8164 4.32422 23.7305C4.37109 23.6367 4.43359 23.5273 4.51172 23.4023C4.61328 23.2383 4.77344 23.0977 4.99219 22.9805C5.21094 22.8555 5.46094 22.7188 5.74219 22.5703C6.03125 22.4219 6.34375 22.25 6.67969 22.0547C7.01562 21.8516 7.35156 21.5859 7.6875 21.2578C7.875 21.0781 8.09766 20.7578 8.35547 20.2969C8.61328 19.8281 8.89062 19.2773 9.1875 18.6445C9.49219 18.0039 9.80469 17.3047 10.125 16.5469C10.4531 15.7812 10.7734 15.0117 11.0859 14.2383C11.3984 13.4648 11.6953 12.7109 11.9766 11.9766C12.2578 11.2344 12.5078 10.5703 12.7266 9.98438C12.9531 9.39062 13.1367 8.89844 13.2773 8.50781C13.418 8.10938 13.5039 7.86719 13.5352 7.78125C13.6133 7.54688 13.7383 7.375 13.9102 7.26562C14.0898 7.15625 14.2812 7.09766 14.4844 7.08984C14.4766 7.08984 14.4688 7.09375 14.4609 7.10156C14.4844 7.10156 14.5078 7.10156 14.5312 7.10156C14.5625 7.09375 14.5898 7.08984 14.6133 7.08984C14.7852 7.08984 14.9531 7.17578 15.1172 7.34766C15.2891 7.51172 15.4102 7.80078 15.4805 8.21484Z" fill="white"/>
</svg>
